<?xml version="1.0" encoding="UTF-8" standalone="no"?>
<svg
   data-name="Слой 1"
   viewBox="0 0 68.93 62.57"
   x="0px"
   y="0px"
   version="1.1"
   id="svg78"
   sodipodi:docname="tardigrade-inverse.svg"
   inkscape:version="1.2.2 (b0a8486541, 2022-12-01, custom)"
   xmlns:inkscape="http://www.inkscape.org/namespaces/inkscape"
   xmlns:sodipodi="http://sodipodi.sourceforge.net/DTD/sodipodi-0.dtd"
   xmlns="http://www.w3.org/2000/svg"
   xmlns:svg="http://www.w3.org/2000/svg"
   xmlns:rdf="http://www.w3.org/1999/02/22-rdf-syntax-ns#"
   xmlns:cc="http://creativecommons.org/ns#"
   xmlns:dc="http://purl.org/dc/elements/1.1/">
  <metadata
     id="metadata82">
    <rdf:RDF>
      <cc:Work
         rdf:about="">
        <dc:format>image/svg+xml</dc:format>
        <dc:type
           rdf:resource="http://purl.org/dc/dcmitype/StillImage" />
      </cc:Work>
    </rdf:RDF>
  </metadata>
  <sodipodi:namedview
     inkscape:document-rotation="0"
     pagecolor="#ffffff"
     bordercolor="#666666"
     borderopacity="1"
     objecttolerance="10"
     gridtolerance="10"
     guidetolerance="10"
     inkscape:pageopacity="0"
     inkscape:pageshadow="2"
     inkscape:window-width="1846"
     inkscape:window-height="1016"
     id="namedview80"
     showgrid="false"
     inkscape:zoom="14.032284"
     inkscape:cx="34.49189"
     inkscape:cy="31.320632"
     inkscape:window-x="1994"
     inkscape:window-y="27"
     inkscape:window-maximized="1"
     inkscape:current-layer="svg78"
     inkscape:showpageshadow="2"
     inkscape:pagecheckerboard="0"
     inkscape:deskcolor="#d1d1d1" />
  <defs
     id="defs4">
    <style
       id="style2">.cls-1{fill:none;}.cls-1,.cls-2{stroke:#000;stroke-miterlimit:10;}.cls-2{fill:#020202;}</style>
  </defs>
  <title
     id="title6">tardigrada</title>
  <g
     id="g936"
     transform="matrix(-1,0,0,1,68.905853,0)">
    <path
       class="cls-1"
       d="m 7.93,33.59 c 4.85,-3.26 7.37,-7.72 10.14,-9.15 1.82,-0.94 7.77,-0.3 9.81,-0.18 2.04,0.12 6.26,-0.75 8,0.27 2.48,1.47 5.22,6.37 6.22,9.06"
       transform="translate(-5.43,-9.47)"
       id="path8" />
    <path
       class="cls-1"
       d="m 46.48,59.24 c -2.37,-0.11 -1.7,1.54 -1.86,4.75 -0.05,1.14 -2.33,4 -4.45,2.18 -0.94,-0.81 -1.82,-2.36 -3.32,-3.48 A 37.18,37.18 0 0 0 30.62,59.4 c -3.27,-1.38 -6,-1.08 -10.65,0 -1,0.23 -4.71,1.49 -6,2.57 -1.61,1.36 -1,2.48 -1.83,3.54 -1.7,2.27 -4.83,1 -5.68,-0.14 -1.64,-2.2 0.87,-9 1,-11.78 0.1,-2.25 -0.59,-5.39 -1,-9 -0.41,-3.61 1.12,-10.74 2.16,-14.12 0.78,-2.53 2.34,-6.85 4,-8.93 2.46,-3.13 7.08,-5.43 10,-8.16 2.11,-2 7,-3.19 9.45,-3.33 a 94.28,94.28 0 0 1 16,0.85 c 5.89,1 7.51,1.78 11.49,6.24 3.34,3.75 8.65,5.67 10.5,15 0.18,0.89 0.19,6.91 0.71,7.66 3.54,5.2 3.23,12.93 2.62,15.87 -0.34,1.73 -2.52,2.65 -3.19,1.19 -1.56,-3.41 -2.33,-5.32 -3.83,-0.71 -0.28,0.86 0.71,0.37 -1.3,4.64 -0.7,1.5 -3.56,1.23 -3.67,0.89 -2.27,-7.24 -3.41,-3.12 -3.55,-6 -0.06,-1.29 -0.67,3.69 -1.7,6.38 0,0 -2.27,3 -4.68,0.66 -0.92,-0.82 -2.98,-3.39 -4.99,-3.48 z"
       transform="translate(-5.43,-9.47)"
       id="path10"
       style="fill:#949dcc;fill-opacity:1" />
    <ellipse
       class="cls-1"
       cx="17.15"
       cy="34.299999"
       rx="9.8000002"
       ry="10.24"
       id="ellipse12"
       style="stroke:#000000" />
    <ellipse
       class="cls-1"
       cx="17.15"
       cy="38.139999"
       rx="3.8199999"
       ry="3.29"
       id="ellipse14" />
    <path
       class="cls-1"
       d="m 19.78,45 0.89,-3.47 a 2.69,2.69 0 0 1 1.86,-0.87 3.64,3.64 0 0 1 2,0.91 l 0.86,3.47 a 12.86,12.86 0 0 0 -3,-0.59 13.92,13.92 0 0 0 -2.61,0.55 z"
       transform="translate(-5.43,-9.47)"
       id="path16" />
    <circle
       class="cls-2"
       cx="17.15"
       cy="38.669998"
       r="1.4299999"
       id="circle18" />
    <path
       class="cls-1"
       d="m 13.15,44.89 c -2.26,-1.65 -2.21,-5.89 -1.93,-8 0.23,-1.69 1.51,-4.67 3,-5.58 1.14,-0.72 6.91,-4.59 11.05,-3.61 3.26,0.78 3.81,1.4 6.51,3 a 7,7 0 0 1 2.63,2.56 c 1.15,2 1.55,6.44 1.31,8 a 5.54,5.54 0 0 1 -3.94,4.72"
       transform="translate(-5.43,-9.47)"
       id="path20"
       style="fill:none;fill-opacity:1" />
    <path
       class="cls-1"
       d="m 11.77,51.77 a 22.17,22.17 0 0 0 8.69,4.72 c 7.84,2 11.26,-7 15.5,-6.91"
       transform="translate(-5.43,-9.47)"
       id="path22" />
    <path
       class="cls-1"
       d="m 44.64,60.78 c -0.27,-1.79 0.11,-5.62 -1.4,-8.6 -0.66,-1.3 3.69,-7.19 0.85,-10.84"
       transform="translate(-5.43,-9.47)"
       id="path24" />
    <path
       class="cls-1"
       d="m 51.89,21 c 2.55,0.85 8.62,-0.39 10.92,19.58 0.43,3.65 6.47,4.42 3.55,16.42"
       transform="translate(-5.43,-9.47)"
       id="path26" />
    <path
       class="cls-1"
       d="m 51.18,32.74 c 1.14,0.93 3.58,3.12 4.54,9.79 0.43,3 3.83,5 2.13,13.19"
       transform="translate(-5.43,-9.47)"
       id="path28" />
    <path
       class="cls-1"
       d="m 10.48,25.93 c 2,-2.64 7.08,-5 9.18,-7.45 1.54,-1.82 9.41,-0.3 11.88,-0.18 2.47,0.12 7.58,-0.75 9.7,0.27 3,1.44 6.32,6.37 7.53,9.06"
       transform="translate(-5.43,-9.47)"
       id="path30" />
    <path
       class="cls-1"
       d="m 24.28,12.34 c 1.85,-0.59 7.91,-0.19 10,-0.11 2.09,0.08 6.38,-0.48 8.16,0.17 2.53,0.91 5.31,4 6.34,5.73"
       transform="translate(-5.43,-9.47)"
       id="path32" />
    <path
       d="m 53.42,63.64 a 1.74,1.74 0 0 0 -1.33,0 c -0.62,1 0.33,4.91 0.33,4.91 0,0 -0.79,-3.85 1,-4.91 z"
       transform="translate(-5.43,-9.47)"
       id="path34" />
    <path
       d="m 54.67,63.64 a 1.74,1.74 0 0 0 -1.33,0 c -0.62,1 0.33,4.91 0.33,4.91 0,0 -0.79,-3.85 1,-4.91 z"
       transform="translate(-5.43,-9.47)"
       id="path36" />
    <path
       d="m 55.05,63 c 0.06,-0.07 -1.24,0 -1.27,0.3 -0.1,1.1 2.7,4.5 2.7,4.5 0,0 -2.63,-3.39 -1.43,-4.8 z"
       transform="translate(-5.43,-9.47)"
       id="path38" />
    <path
       d="m 56.24,62.74 c 0.06,-0.07 -1.24,0 -1.27,0.3 -0.1,1.1 2.7,4.5 2.7,4.5 0,0 -2.67,-3.41 -1.43,-4.8 z"
       transform="translate(-5.43,-9.47)"
       id="path40" />
    <path
       d="m 62.89,61.88 a 1.74,1.74 0 0 0 -1.33,-0.07 c -0.67,1 0.08,4.92 0.08,4.92 0,0 -0.64,-3.89 1.25,-4.85 z"
       transform="translate(-5.43,-9.47)"
       id="path42" />
    <path
       d="M 64.13,61.94 A 1.74,1.74 0 0 0 62.8,61.87 c -0.67,1 0.08,4.92 0.08,4.92 0,0 -0.59,-3.89 1.25,-4.85 z"
       transform="translate(-5.43,-9.47)"
       id="path44" />
    <path
       d="m 64.55,61.34 c 0.06,-0.07 -1.24,-0.07 -1.28,0.24 -0.15,1.09 2.46,4.64 2.46,4.64 0,0 -2.45,-3.56 -1.18,-4.88 z"
       transform="translate(-5.43,-9.47)"
       id="path46" />
    <path
       d="m 65.75,61.11 c 0.06,-0.07 -1.24,-0.07 -1.28,0.24 -0.15,1.09 2.46,4.65 2.46,4.65 0,0 -2.45,-3.56 -1.18,-4.89 z"
       transform="translate(-5.43,-9.47)"
       id="path48" />
    <path
       d="m 71,57.49 a 1.38,1.38 0 0 0 -1.06,0 c -0.49,0.82 0.26,3.9 0.26,3.9 0,0 -0.64,-3.06 0.8,-3.9 z"
       transform="translate(-5.43,-9.47)"
       id="path50" />
    <path
       d="m 72,57.49 a 1.38,1.38 0 0 0 -1.06,0 c -0.49,0.82 0.26,3.9 0.26,3.9 0,0 -0.65,-3.06 0.8,-3.9 z"
       transform="translate(-5.43,-9.47)"
       id="path52" />
    <path
       d="m 72.28,57 a 1.33,1.33 0 0 0 -1,0.24 c -0.08,0.87 2.14,3.58 2.14,3.58 0,0 -2.09,-2.72 -1.14,-3.82 z"
       transform="translate(-5.43,-9.47)"
       id="path54" />
    <path
       d="m 73.22,56.77 a 1.33,1.33 0 0 0 -1,0.24 c -0.08,0.87 2.14,3.58 2.14,3.58 0,0 -2.09,-2.71 -1.14,-3.82 z"
       transform="translate(-5.43,-9.47)"
       id="path56" />
    <path
       d="m 41.43,67.1 a 1.74,1.74 0 0 0 -1.33,0.05 c -0.58,1.05 0.52,4.9 0.52,4.9 0,0 -0.94,-3.83 0.81,-4.95 z"
       transform="translate(-5.43,-9.47)"
       id="path58" />
    <path
       d="m 42.67,67.06 a 1.74,1.74 0 0 0 -1.33,0.05 c -0.58,1.05 0.52,4.9 0.52,4.9 0,0 -0.93,-3.83 0.81,-4.95 z"
       transform="translate(-5.43,-9.47)"
       id="path60" />
    <path
       d="m 43,66.42 c 0.06,-0.07 -1.24,0 -1.26,0.35 -0.05,1.1 2.87,4.4 2.87,4.4 0,0 -2.72,-3.32 -1.61,-4.75 z"
       transform="translate(-5.43,-9.47)"
       id="path62" />
    <path
       d="m 44.21,66.09 c 0.06,-0.07 -1.24,0 -1.26,0.35 -0.05,1.1 2.87,4.4 2.87,4.4 0,0 -2.75,-3.32 -1.61,-4.75 z"
       transform="translate(-5.43,-9.47)"
       id="path64" />
    <path
       d="m 9.14,67 a 1.34,1.34 0 0 1 1.16,0 c 0.54,1.08 -0.3,5 -0.3,5 0,0 0.7,-3.9 -0.86,-5 z"
       transform="translate(-5.43,-9.47)"
       id="path66" />
    <path
       d="m 8.05,67 a 1.34,1.34 0 0 1 1.16,0 c 0.54,1 -0.29,4.91 -0.29,4.91 0,0 0.69,-3.81 -0.87,-4.91 z"
       transform="translate(-5.43,-9.47)"
       id="path68" />
    <path
       d="m 7.72,66.43 a 1.31,1.31 0 0 1 1.11,0.3 c 0.08,1.1 -2.35,4.5 -2.35,4.5 0,0 2.28,-3.42 1.24,-4.8 z"
       transform="translate(-5.43,-9.47)"
       id="path70" />
    <path
       d="m 6.68,66.14 a 1.31,1.31 0 0 1 1.11,0.3 c 0.08,1.1 -2.35,4.5 -2.35,4.5 0,0 2.28,-3.41 1.24,-4.8 z"
       transform="translate(-5.43,-9.47)"
       id="path72" />
    <path
       class="cls-1"
       d="m 29.18,38.27 c 0,0 -3.31,1.73 -3.89,3.33 -0.72,2 2.86,6.65 2.86,9"
       transform="translate(-5.43,-9.47)"
       id="path74" />
    <path
       class="cls-1"
       d="m 15.85,38.27 c 0,0 3.31,1.73 3.9,3.34 0.72,2 -2.86,6.65 -2.86,9"
       transform="translate(-5.43,-9.47)"
       id="path76" />
  </g>
</svg>
